<svg version="1.2" baseProfile="tiny-ps" xmlns="http://www.w3.org/2000/svg" width="512" height="512" viewBox="0 0 512 512">
<title>Better i18n</title>
<rect width="512" height="512" rx="64" fill="#0a0a0a"/>
<g transform="translate(88, 75) scale(1.29)">
  <path fill="#ffffff" d="M108.013 5.879C121.62-1.96 138.38-1.96 151.987 5.879L237.988 55.424C251.609 63.271 260 77.78 260 93.483V192.517C260 208.219 251.608 222.728 237.987 230.575L151.987 280.121C138.38 287.96 121.62 287.96 108.013 280.121L22.012 230.575C8.392 222.728 0 208.219 0 192.517V93.483C0 77.78 8.392 63.271 22.013 55.424L108.013 5.879Z"/>
  <path fill="#0a0a0a" d="M136.603 23.62C131.652 20.762 125.553 20.762 120.603 23.62L54 62.072C48.667 65.151 48.667 72.849 54 75.928L142.342 126.931C147.292 129.789 150.342 135.072 150.342 140.788V242.792C150.342 248.951 157.009 252.8 162.342 249.721L228.944 211.268C233.895 208.41 236.944 203.127 236.944 197.411L236.94 90.787C236.94 85.071 233.891 79.789 228.94 76.931L136.603 23.62Z"/>
  <path fill="#ffffff" d="M175.32 185C177.233 183.896 178.784 184.791 178.784 187V203.429C178.784 204.296 179.478 204.573 180.009 204.879C180.54 205.186 181.126 205.649 181.877 205.215L196.104 197C198.018 195.896 199.569 196.791 199.569 199V215C199.569 217.21 198.018 219.896 196.104 221L182.249 229C180.336 230.105 178.784 229.209 178.784 227V210.572C178.784 209.704 178.091 209.428 177.56 209.122C177.028 208.815 176.443 208.352 175.692 208.786L161.464 217C159.551 218.105 158 217.209 158 215V199C158 196.791 159.551 194.105 161.464 193L175.32 185Z"/>
</g>
</svg>
